ffmpeg version 3.4.8-0ubuntu0.2 Copyright (c) 2000-2020 the FFmpeg developers
  built with gcc 7 (Ubuntu 7.5.0-3ubuntu1~18.04)
  configuration: --prefix=/usr --extra-version=0ubuntu0.2 --toolchain=hardened --libdir=/usr/lib/x86_64-linux-gnu --incdir=/usr/include/x86_64-linux-gnu --enable-gpl --disable-stripping --enable-avresample --enable-avisynth --enable-gnutls --enable-ladspa --enable-libass --enable-libbluray --enable-libbs2b --enable-libcaca --enable-libcdio --enable-libflite --enable-libfontconfig --enable-libfreetype --enable-libfribidi --enable-libgme --enable-libgsm --enable-libmp3lame --enable-libmysofa --enable-libopenjpeg --enable-libopenmpt --enable-libopus --enable-libpulse --enable-librubberband --enable-librsvg --enable-libshine --enable-libsnappy --enable-libsoxr --enable-libspeex --enable-libssh --enable-libtheora --enable-libtwolame --enable-libvorbis --enable-libvpx --enable-libwavpack --enable-libwebp --enable-libx265 --enable-libxml2 --enable-libxvid --enable-libzmq --enable-libzvbi --enable-omx --enable-openal --enable-opengl --enable-sdl2 --enable-libdc1394 --enable-libdrm --enable-libiec61883 --enable-chromaprint --enable-frei0r --enable-libopencv --enable-libx264 --enable-shared
  libavutil      55. 78.100 / 55. 78.100
  libavcodec     57.107.100 / 57.107.100
  libavformat    57. 83.100 / 57. 83.100
  libavdevice    57. 10.100 / 57. 10.100
  libavfilter     6.107.100 /  6.107.100
  libavresample   3.  7.  0 /  3.  7.  0
  libswscale      4.  8.100 /  4.  8.100
  libswresample   2.  9.100 /  2.  9.100
  libpostproc    54.  7.100 / 54.  7.100
[rawvideo @ 0x560cdcdcca20] Estimating duration from bitrate, this may be inaccurate
Input #0, rawvideo, from '../../SVC-Encoder-20220109T061506Z-001/SVC-Encoder/Dataset/RollerCoaster/6f_2x2/tile_yuv/f3_t0_480x480.yuv':
  Duration: 00:00:10.00, start: 0.000000, bitrate: 82944 kb/s
    Stream #0:0: Video: rawvideo (I420 / 0x30323449), yuv420p, 480x480, 82944 kb/s, 30 tbr, 30 tbn, 30 tbc
Stream mapping:
  Stream #0:0 -> #0:0 (rawvideo (native) -> h264 (libx264))
Press [q] to stop, [?] for help
[libx264 @ 0x560cdcdd9c60] using cpu capabilities: MMX2 SSE2Fast LZCNT SSSE3 SSE4.2 AVX
[libx264 @ 0x560cdcdd9c60] profile High, level 3.0
Output #0, rawvideo, to 'RollerCoaster_f3_t0_480x480_x264_QP_28.h264':
  Metadata:
    encoder         : Lavf57.83.100
    Stream #0:0: Video: h264 (libx264), yuv420p, 480x480, q=-1--1, 30 fps, 30 tbn, 30 tbc
    Metadata:
      encoder         : Lavc57.107.100 libx264
    Side data:
      cpb: bitrate max/min/avg: 0/0/0 buffer size: 0 vbv_delay: -1
frame=  133 fps=0.0 q=34.0 PSNR=Y:nan U:nan V:nan *:nan size=      73kB time=00:00:03.00 bitrate= 198.4kbits/s speed=5.99x    frame=  232 fps=231 q=34.0 PSNR=Y:nan U:nan V:nan *:nan size=     139kB time=00:00:06.30 bitrate= 180.1kbits/s speed=6.26x    frame=  300 fps=202 q=34.0 LPSNR=Y:inf U:inf V:inf *:inf size=     214kB time=00:00:09.93 bitrate= 176.6kbits/s speed=6.68x    
video:214kB audio:0kB subtitle:0kB other streams:0kB global headers:0kB muxing overhead: 0.000000%
[libx264 @ 0x560cdcdd9c60] frame I:2     Avg QP:25.81  size: 20589  PSNR Mean Y:42.30 U:46.37 V:44.55 Avg:43.10 Global:43.03
[libx264 @ 0x560cdcdd9c60] frame P:76    Avg QP:27.39  size:  1642  PSNR Mean Y:40.59 U:45.72 V:43.80 Avg:41.57 Global:41.54
[libx264 @ 0x560cdcdd9c60] frame B:222   Avg QP:33.52  size:   240  PSNR Mean Y:40.15 U:45.63 V:43.72 Avg:41.19 Global:41.18
[libx264 @ 0x560cdcdd9c60] consecutive B-frames:  1.3%  0.0%  0.0% 98.7%
[libx264 @ 0x560cdcdd9c60] mb I  I16..4: 25.6% 48.3% 26.1%
[libx264 @ 0x560cdcdd9c60] mb P  I16..4:  0.8%  0.4%  0.0%  P16..4: 36.8%  9.0%  3.4%  0.0%  0.0%    skip:49.6%
[libx264 @ 0x560cdcdd9c60] mb B  I16..4:  0.0%  0.0%  0.0%  B16..8: 24.7%  0.6%  0.0%  direct: 0.0%  skip:74.7%  L0:45.9% L1:52.9% BI: 1.3%
[libx264 @ 0x560cdcdd9c60] 8x8 transform intra:43.4% inter:69.9%
[libx264 @ 0x560cdcdd9c60] coded y,uvDC,uvAC intra: 45.5% 60.4% 32.3% inter: 3.0% 2.7% 0.0%
[libx264 @ 0x560cdcdd9c60] i16 v,h,dc,p: 37% 29% 19% 15%
[libx264 @ 0x560cdcdd9c60] i8 v,h,dc,ddl,ddr,vr,hd,vl,hu: 19% 14% 28%  6%  6%  6%  6%  9%  6%
[libx264 @ 0x560cdcdd9c60] i4 v,h,dc,ddl,ddr,vr,hd,vl,hu: 26% 14% 14%  6% 10% 13%  8%  5%  5%
[libx264 @ 0x560cdcdd9c60] i8c dc,h,v,p: 46% 21% 22% 11%
[libx264 @ 0x560cdcdd9c60] Weighted P-Frames: Y:1.3% UV:0.0%
[libx264 @ 0x560cdcdd9c60] ref P L0: 54.2% 14.8% 20.9% 10.0%  0.1%
[libx264 @ 0x560cdcdd9c60] ref B L0: 60.2% 30.8%  9.0%
[libx264 @ 0x560cdcdd9c60] ref B L1: 72.4% 27.6%
[libx264 @ 0x560cdcdd9c60] PSNR Mean Y:40.279 U:45.662 V:43.744 Avg:41.300 Global:41.276 kb/s:175.45
